<?xml version="1.0" encoding="utf-8"?>
<!-- Generator: Adobe Illustrator 26.0.1, SVG Export Plug-In . SVG Version: 6.00 Build 0)  -->
<svg version="1.1" id="Layer_1" xmlns="http://www.w3.org/2000/svg" xmlns:xlink="http://www.w3.org/1999/xlink" x="0px" y="0px"
	 viewBox="0 0 235.9 37" style="enable-background:new 0 0 235.9 37;" xml:space="preserve">
<style type="text/css">
	.st0{fill:#FEB511;}
	.st1{fill:#FFFFFF;}
	.st2{fill:#999999;}
	.st3{fill-rule:evenodd;clip-rule:evenodd;fill:#FFFFFF;}
	.st4{fill-rule:evenodd;clip-rule:evenodd;fill:#963D59;}
	.st5{fill:#C01818;}
	.st6{fill:#75160D;}
</style>
<g>
	<path class="st0" d="M12.2,6.8C5.5,6.8,0,12.3,0,19s5.5,12.2,12.2,12.2S24.4,25.7,24.4,19S18.9,6.8,12.2,6.8L12.2,6.8z M12.1,10.6
		c4.6,0,8.4,3.7,8.4,8.4s-3.7,8.4-8.4,8.4S3.7,23.7,3.7,19S7.5,10.6,12.1,10.6L12.1,10.6z"/>
	<path class="st1" d="M28,9.4V20h2.1v-7.4l3.8,7.4h2.3V9.4h-2.1V16l-3.5-6.6h-2.1H28z M41,12.1c-2.2,0-4.1,1.8-4.1,4l0,0
		c0,2.2,1.8,4.1,4.1,4.1c2.3,0,4.1-1.8,4.1-4.1C45.1,13.9,43.3,12.1,41,12.1L41,12.1z M41,14c1.1,0,2.1,0.9,2.1,2.1
		c0,1.1-0.9,2.1-2.1,2.1c-1.1,0-2.1-0.9-2.1-2.1C39,15,39.9,14,41,14L41,14z M45.6,12.2V20h2.3v-3.2c0-1.1,0.2-1.8,0.7-2.3
		c0.4-0.5,0.8-0.8,1.9-0.8h0.9v3.6c0,0.5,0,1,0.2,1.4c0.3,0.9,1,1.4,2.3,1.4c0.6,0,1.2-0.1,1.8-0.3l-0.3-1.6
		c-0.3,0.1-0.6,0.2-0.8,0.2c-0.7,0-0.8-0.3-0.8-1v-3.7h1.7v-1.6h-1.7V9.9h-1.9l-0.4,2.2h-1.1c-0.3,0-0.6,0-0.9,0.1
		c-1.1,0.3-1.6,1.1-1.8,1.6L47,12.1L45.6,12.2z M59.7,12.1c-2.2,0-4.1,1.8-4.1,4l0,0c0,2.2,1.8,4.1,4.1,4.1c2.2,0,4.1-1.8,4.1-4.1
		C63.8,13.9,61.9,12.1,59.7,12.1L59.7,12.1z M59.7,14c1.1,0,2.1,0.9,2.1,2.1c0,1.1-0.9,2.1-2.1,2.1s-2.1-0.9-2.1-2.1
		C57.6,15,58.5,14,59.7,14L59.7,14z M68.8,12.1c-1.1,0-1.9,0.5-2.7,1.4l-0.4-1.2h-1.3v7.8h2.2v-5.4c0.2-0.3,0.7-0.7,1.4-0.7
		c0.8,0,1.2,0.5,1.2,1.2v5h2.3v-5C71.4,13.1,70.3,12,68.8,12.1L68.8,12.1z M71.6,13.1v-0.7h-0.2v-0.2H72v0.2h-0.2v0.7H71.6z
		 M72.1,13.1v-0.9h0.2l0.2,0.6l0.2-0.6h0.2v0.9h-0.1v-0.7l-0.2,0.7h-0.1l-0.2-0.7v0.7H72.1z M24.5,4v0.9h0.9V4H24.5z M24.5,4.9h-1.7
		v0.9h1.7V4.9z M22.8,5.9h-0.9v1.8h0.9V5.9z M22.8,7.7v0.9h0.9V7.7H22.8z M23.7,7.7h1V6.8h-1V7.7z M22.8,8.6h-0.9v0.9H21V8.6h-1.5
		v0.6h-0.8V10h0.9v0.9h-0.9V10h-1v1.4h-0.9v0.9h-0.6v0.9h-0.6c-1.4,2.3-2.5,4.3-3.1,5.9c-1.7-2.3-2.6-3.2-4-4
		c-0.5-0.3-1-0.4-1.3-0.2s-0.5,0.8,0,1.3c2.7,3,3.2,4.7,4.2,7c0.3,0.7,0.9,1,1.5,1c0.3,0,0.8-0.1,1-0.4c0.1-0.2,0.2-0.4,0.3-0.6
		c0.8-2,1.8-4,3.1-5.9v-1H18v-0.9h0.8v-1.1h0.9v-1h-0.9v-0.9h0.9v0.9h0.9v-0.9h0.7v-1.1h0.8v-0.7h0.8v-2H22.8z M21,8.6h0.9V7.7H21
		V8.6z M21,7.7V6.8h-0.9v0.9C20.1,7.7,21,7.7,21,7.7z"/>
	<path class="st0" d="M22.8,5.9h0.9v0.9h-0.9V5.9z M25.4,4.9h1v0.9h-1V4.9z M25.4,3h1v1h-1V3z"/>
	<path class="st2" d="M28.5,28.5h-0.4v-5.8h0.7v2.2c0.3-0.4,0.7-0.6,1.1-0.6c1.2,0,1.6,1.1,1.6,2.1c0,1.2-0.7,2.2-1.7,2.2
		c-0.5,0-0.9-0.2-1.1-0.6L28.5,28.5z M28.8,27.6c0.3,0.3,0.3,0.4,0.9,0.4c0.8,0,1.1-0.9,1.1-1.6c0-0.8-0.2-1.5-1-1.5
		c-0.5,0-0.8,0.2-1,0.5V27.6z M32.2,29.9l0.1-0.5c0.6,0.1,1,0,1.3-0.7l-1.5-4.4h0.7l1,3.5l1-3.5h0.7l-1.4,4.6
		C33.8,29.9,33,30.1,32.2,29.9L32.2,29.9z M37.7,27.9l0.4-0.5c0.6,0.4,1,0.6,1.6,0.6c0.7,0,1.2-0.4,1.2-1c0-1.7-2.9-0.7-2.9-2.9
		c0-1,0.8-1.4,1.7-1.5c0.6,0,1.2,0.1,1.6,0.4L41,23.6c-0.2-0.2-0.9-0.3-1.2-0.3c-0.6,0-1,0.2-1.1,0.8c-0.1,1.6,2.9,0.7,2.9,3
		c0,1-0.8,1.6-1.9,1.6C38.7,28.5,37.9,28.1,37.7,27.9L37.7,27.9z M46.4,28.5v-4.2h0.4L47,25c0.3-0.5,0.9-0.8,1.4-0.8
		c0.6,0,0.8,0.4,0.9,0.7c0.4-0.4,0.9-0.7,1.4-0.7c0.9,0,1.1,0.6,1.1,1.4v2.9h-0.7v-2.7c0-0.6-0.1-1-0.6-1c-0.6,0-0.9,0.4-1.1,0.6
		v3.1h-0.7v-2.8c0-0.6-0.1-0.9-0.6-0.9S47.5,25,47,25.4v3.1L46.4,28.5z M55.4,28c-0.4,0.4-0.8,0.6-1.3,0.6c-0.7,0-1.3-0.4-1.3-1.1
		c0-0.9,0.6-1.1,1.1-1.3c0.5-0.2,0.9-0.2,1.3-0.3c0-0.7-0.1-1-0.7-1c-0.5,0-1,0.2-1.2,0.4L53,24.8c0.2-0.2,0.7-0.5,1.5-0.5
		c0.9,0,1.4,0.5,1.4,1.4v2.8h-0.4L55.4,28z M55.3,26.3c-0.4,0.1-0.7,0.2-1,0.3c-0.5,0.1-0.7,0.4-0.7,0.8s0.3,0.6,0.6,0.6
		c0.4,0,0.7-0.1,1.1-0.4V26.3z M63.5,27.9l0.1,0.5c-0.3,0.1-0.6,0.1-0.8,0.1c-0.9,0-1-0.6-1-1.2v-2.5h-0.6v-0.5h0.6l0.2-1.2h0.5v1.2
		h0.9v0.5h-0.9v2.5c0,0.6,0.3,0.6,0.5,0.6C63.3,28,63.5,27.9,63.5,27.9L63.5,27.9z M67.1,27.6l0.3,0.4c-0.3,0.2-0.7,0.6-1.4,0.6
		c-1.3,0-1.8-1-1.8-2.1c0-1.2,0.5-2.2,1.7-2.2c1.5,0,1.7,1.4,1.7,2.4H65c0,0.8,0.3,1.4,1,1.4C66.6,28,67.1,27.6,67.1,27.6L67.1,27.6
		z M65,26.1h1.9c0-0.7-0.2-1.3-0.9-1.3C65.1,24.8,65,25.5,65,26.1z M71.4,28c-0.3,0.3-0.8,0.5-1.4,0.5c-1.2,0-1.7-0.9-1.7-2.1
		s0.6-2.2,1.8-2.2c0.5,0,0.9,0.2,1.2,0.4L71,25.1c-0.2-0.1-0.6-0.3-0.9-0.3c-0.8,0-1.1,0.6-1.1,1.6c0,0.8,0.2,1.6,1.1,1.6
		c0.3,0,0.6-0.1,0.9-0.4L71.4,28z M42.2,29.9l0.1-0.5c0.6,0.1,1,0,1.3-0.7l-1.5-4.4h0.7l1,3.5l1-3.5h0.7l-1.4,4.6
		C43.8,29.9,43,30.1,42.2,29.9z M57.2,28.5v-4.2h0.4l0.2,0.7c0.3-0.5,1-0.8,1.6-0.8c0.8,0,1.1,0.7,1.1,1.4v2.9h-0.7v-2.8
		c0-0.6-0.1-0.9-0.6-0.9S58.5,25,58,25.4v3.1L57.2,28.5z"/>
</g>
<g>
	<g>
		<path class="st3" d="M111.5,13.5c-0.4-0.8-0.5-1.6-1.6-1.6v-0.3c0.6,0,1.2,0,1.9,0s1.3,0,1.9,0v0.3c-0.4,0-1,0-1,0.5s0.8,2.5,1,3
			l1.4,3.4l1.2-3c0.3-0.7,1-2.6,1-3.2c0-0.7-0.5-0.7-1.1-0.7v-0.3c0.5,0,1,0,1.5,0c0.4,0,0.9,0,1.4,0v0.3c-1.1,0-1.4,1.1-1.7,2
			l-2.7,6.7h-0.4L111.5,13.5L111.5,13.5z M118.7,16.4c0.2-0.9,0.6-1.6,1.5-1.6c0.8,0,1.3,0.5,1.3,1.4c0,0.3-0.4,0.3-0.7,0.3
			L118.7,16.4L118.7,16.4z M122.3,19.1c-0.4,0.5-1,1-1.7,1c-1.4,0-2.1-1.4-2.1-2.7l0.1-0.6h3.8c0.1,0,0.4,0,0.4-0.1
			c0-1.4-1.2-2.2-2.5-2.2c-1.7,0-3,1.5-3,3.1c0,1.7,1.4,2.9,3,2.9c1,0,1.7-0.4,2.3-1.1L122.3,19.1L122.3,19.1z M124.2,17.2
			c0-0.4,0-1.3-0.1-1.6c-0.1-0.5-0.4-0.4-0.9-0.4v-0.3c0.6,0,1.2-0.3,1.8-0.4c0.1,0.4,0.2,0.9,0.2,1.3l0,0c0.3-0.8,1-1.3,1.9-1.3
			c0.4,0,0.9,0.2,0.9,0.7c0,0.2-0.2,0.4-0.4,0.4c-0.6,0-0.4-0.7-1-0.7c-0.4,0-0.8,0.3-1,0.7c-0.3,0.5-0.3,1.2-0.3,1.8v1.3
			c0,1-0.1,1.3,1,1.4v0.2c-0.5,0-1,0-1.5,0s-1,0-1.5,0v-0.2c1-0.1,0.9-0.4,0.9-1.3L124.2,17.2L124.2,17.2z M130.5,14.5v4.2
			c0,0.9-0.1,1.3,0.9,1.4v0.2c-0.5,0-1,0-1.4,0c-0.5,0-1.1,0-1.5,0v-0.2c1-0.1,0.9-0.4,0.9-1.3v-1.9c0-0.2,0-1.3,0-1.5
			c-0.1-0.3-0.7-0.3-0.9-0.3v-0.3L130.5,14.5L130.5,14.5z M129,12.2c0-0.4,0.4-0.7,0.8-0.7s0.7,0.3,0.7,0.7s-0.3,0.7-0.7,0.7
			S129,12.6,129,12.2z M132.1,17.7h0.3c0.3,1.3,1,2.5,2.5,2.5c1,0,1.9-0.6,1.9-1.7c0-1.2-1.1-1.7-2-2c-1.2-0.5-2.5-1.1-2.5-2.6
			s1.1-2.4,2.6-2.4c0.7,0,1.4,0.2,2,0.7l0.3-0.5h0.1l0.1,2.3h-0.3c-0.3-1.1-0.9-2.1-2.2-2.1c-0.8,0-1.5,0.5-1.5,1.4
			c0,1.1,0.9,1.4,1.8,1.8c1.4,0.6,2.9,1.2,2.9,3c0,1.7-1.6,2.6-3.2,2.6c-0.9,0-1.6-0.3-2.3-0.8l-0.3,0.5h-0.2V17.7L132.1,17.7
			L132.1,17.7z M140.5,14.5v4.2c0,0.9-0.1,1.3,0.9,1.4v0.2c-0.4,0-0.9,0-1.4,0s-1,0-1.5,0v-0.2c1-0.1,0.9-0.4,0.9-1.3v-1.9
			c0-0.2,0-1.3,0-1.5c-0.1-0.3-0.7-0.3-0.9-0.3v-0.3L140.5,14.5L140.5,14.5z M139.1,12.2c0-0.4,0.3-0.7,0.7-0.7s0.7,0.3,0.7,0.7
			s-0.3,0.7-0.7,0.7C139.5,12.9,139.1,12.6,139.1,12.2L139.1,12.2z M144.3,18.4c-1,0-1.3-1-1.3-1.8c0-0.8,0.3-1.8,1.3-1.8
			s1.3,1,1.3,1.8C145.6,17.5,145.3,18.4,144.3,18.4z M143.8,19.7c-0.3,0-1,0-1-0.4c0-0.5,1-0.5,1.4-0.6c1.4,0,2.6-0.5,2.6-2.1
			c0-0.4-0.2-0.9-0.5-1.3c0.1-0.1,0.4-0.3,0.5-0.3c0.4,0,0.4,0.5,0.9,0.5c0.2,0,0.4-0.2,0.4-0.4c0-0.4-0.4-0.6-0.8-0.6
			c-0.5,0-0.9,0.3-1.3,0.6c-0.4-0.4-1.1-0.6-1.7-0.6c-1.3,0-2.5,0.8-2.5,2.2c0,0.8,0.7,1.6,1.4,1.8l0,0c-0.5,0.1-1.1,0.5-1.1,1.1
			c0,1.2,1.2,1.1,2.1,1.2c0.9,0,2.4,0,2.4,1.3c0,1.1-1,1.5-1.9,1.5s-2.1-0.2-2.1-1.4c0-0.4,0.3-0.9,0.7-1c-0.2-0.1-0.4-0.2-0.6-0.2
			c-0.5,0-1,0.6-1,1.1c0,1.4,1.7,1.8,2.8,1.8c1.5,0,3-0.6,3-2.3c0-1.8-1.4-1.8-2.8-1.9H143.8L143.8,19.7z M154.4,18.7
			c0,0.9-0.1,1.3,0.9,1.4v0.2c-0.5,0-1,0-1.4,0c-0.5,0-1,0-1.5,0v-0.2c1-0.1,0.9-0.4,0.9-1.3v-1.7c0-0.9,0-2.2-1.2-2.2
			c-1,0-1.7,0.8-1.7,1.8v2c0,0.9-0.1,1.3,0.9,1.4v0.2c-0.5,0-1,0-1.5,0s-1,0-1.5,0v-0.2c1-0.1,0.9-0.4,0.9-1.3v-1.6
			c0-0.4,0-1.3-0.1-1.6c-0.1-0.5-0.4-0.4-0.9-0.4v-0.3c0.7,0,1.2-0.3,1.8-0.4l0.2,1.2l0,0c0.4-0.8,1.1-1.2,2.1-1.2
			c1.2,0,1.9,0.6,1.9,1.8v2.4H154.4z M112.3,25.6v2.8h-0.6v-2.8h-0.9v-0.5h2.4v0.5H112.3z M115.7,26.1c0,0.3-0.3,0.5-0.6,0.5
			c-0.1,0-0.2,0-0.2,0v-0.9c0,0,0.1,0,0.2,0C115.5,25.6,115.7,25.8,115.7,26.1z M116.6,28.4l-0.8-1.1c-0.1-0.1-0.2-0.3-0.3-0.4
			c0.5-0.1,0.8-0.4,0.8-0.9c0-0.7-0.5-0.9-1.2-0.9h-1v3.3h0.7V27l0.9,1.4H116.6L116.6,28.4z M119,28.5c-1.1,0-1.3-0.6-1.3-1.2v-2.2
			h0.6v2.1c0,0.4,0.1,0.7,0.7,0.7c0.5,0,0.7-0.2,0.7-0.8V25h0.7v2C120.3,28,119.8,28.5,119,28.5L119,28.5z M122.1,28.5
			c-0.2,0-0.4,0-0.7-0.1v-0.6c0.2,0,0.4,0.1,0.7,0.1s0.6-0.1,0.6-0.4c0-0.7-1.4-0.4-1.4-1.5c0-0.6,0.5-1,1.3-1c0.2,0,0.4,0,0.6,0
			v0.6c-0.2,0-0.4-0.1-0.6-0.1c-0.4,0-0.6,0.2-0.6,0.4c0,0.6,1.4,0.4,1.4,1.4C123.5,28,123,28.5,122.1,28.5L122.1,28.5z M126.7,25.6
			v-0.5h-2.3v0.5h0.9v2.8h0.6v-2.8H126.7z M131.4,28.4l-1-1.7c-0.1-0.3-0.2-0.5-0.4-0.7c0,0.3,0,0.8,0,1.2v1.2h-0.6v-3.3h0.8
			l0.9,1.6c0.1,0.3,0.3,0.5,0.4,0.8c0-0.3,0-0.9,0-1.3v-1h0.6v3.3L131.4,28.4L131.4,28.4z M133.7,28.4v-3.3h1.8v0.5h-1.1v0.8h1.1V27
			h-1.1v0.9h1.1v0.5H133.7L133.7,28.4z M138.4,25.6v2.8h-0.7v-2.8h-0.8v-0.5h2.3v0.5H138.4z M143.8,28.4H143l-0.4-1.8
			c-0.1-0.2-0.1-0.5-0.1-0.7c0,0.2-0.1,0.4-0.1,0.7l-0.5,1.9h-0.8l-0.8-3.3h0.7l0.5,1.8c0,0.2,0.1,0.4,0.1,0.7l0,0
			c0-0.2,0-0.4,0.1-0.7l0.5-1.9h0.7l0.5,1.9c0,0.2,0.1,0.4,0.1,0.6c0-0.2,0.1-0.4,0.1-0.6l0.4-1.9h0.6L143.8,28.4L143.8,28.4z
			 M147.8,26.8c0,0.8-0.5,1.1-0.9,1.1c-0.6,0-0.9-0.4-0.9-1.1c0-0.8,0.4-1.1,0.9-1.1C147.5,25.6,147.8,26,147.8,26.8z M148.4,26.7
			c0-1.1-0.6-1.6-1.5-1.6s-1.6,0.7-1.6,1.7c0,1.1,0.5,1.7,1.5,1.7C147.7,28.5,148.4,27.8,148.4,26.7z M151,28.4l-0.9-1.4l0,0v1.4
			h-0.6v-3.3h0.9c0.8,0,1.2,0.2,1.2,0.9c0,0.5-0.4,0.8-0.9,0.9c0.1,0.1,0.2,0.2,0.3,0.4l0.8,1.1H151L151,28.4z M150.3,25.6
			c-0.1,0-0.2,0-0.3,0v0.9c0,0,0.1,0,0.2,0c0.4,0,0.6-0.2,0.6-0.5S150.7,25.6,150.3,25.6L150.3,25.6z M154.5,28.4l-1.1-1.6v1.6h-0.6
			v-3.3h0.6v1.5l1.1-1.5h0.8l-1.2,1.6l1.2,1.7L154.5,28.4L154.5,28.4z"/>
		<path class="st4" d="M86,19.5v8.9h5.3c-0.2-0.1-0.3-0.3-0.4-0.5C90,25.7,89.1,22.9,86,19.5L86,19.5z M102,14.6h-0.7v1.5h-1.1v1.5
			h-1.1v1.5h-0.9v1.5c-1.4,2.3-2.9,4.8-4.1,7.4c0,0.1-0.1,0.2-0.2,0.3h9.5V13.1h-1.5L102,14.6L102,14.6z M105.1,13.1v-1.5h-1.5v1.5
			H105.1L105.1,13.1z M105.1,6.9h-1.5v1.5h-1.5v3h1.5V10h1.5V6.9z M106.6,6.9V5.4h-1.5v1.5H106.6z M106.6,11.5V10h-1.5v1.5H106.6z
			 M100.4,11.5V10h-1.5v1.5H100.4z"/>
		<path class="st4" d="M96.5,16.1v-1.5h1v-1.5h1.4v-1.5H86v5.7c0.1,0,0.2,0,0.3,0c1.5,0.5,3.4,1.9,6,5.3c0.9-2.3,2.2-4.6,3.3-6.5
			L96.5,16.1L96.5,16.1L96.5,16.1z M99.1,17.7v-1.5h-1.5v1.5H99.1z"/>
		<path class="st3" d="M157.5,24.8c0-0.3-0.2-0.4-0.4-0.4c-0.1,0-0.4,0-0.4,0.3c0,0.2,0.1,0.2,0.2,0.3l0.5,0.1
			c0.2,0,0.4,0.2,0.4,0.5c0,0.4-0.4,0.5-0.7,0.5c-0.4,0-0.5-0.1-0.5-0.2c-0.2-0.1-0.2-0.3-0.2-0.4h0.2c0,0.3,0.3,0.4,0.5,0.4
			s0.4,0,0.4-0.3c0-0.2-0.1-0.3-0.4-0.4h-0.4c-0.1,0-0.4-0.1-0.4-0.4s0.2-0.5,0.6-0.5c0.6,0,0.7,0.4,0.7,0.6L157.5,24.8L157.5,24.8
			L157.5,24.8z M160,26v-1.8h-0.4l-0.5,1.5l-0.5-1.5h-0.4V26h0.2v-1v-0.4l0.5,1.5h0.3l0.5-1.5V26H160z"/>
	</g>
</g>
<g>
	<g>
		<path class="st5" d="M201.9,22.3l-1.8-1l-0.1,0.2c-0.4,0.6-1,1-1.6,1c-1.2,0-2-0.9-2-2c0-1.2,0.9-2,2-2c0.7,0,1.2,0.3,1.6,1
			l0.1,0.2l1.8-1l-0.2-0.2c-0.9-1.2-1.9-1.8-3.4-1.8c-2.7,0-4.2,2.1-4.2,4s1.5,4,4.2,4c1.4,0,2.7-0.7,3.4-1.8L201.9,22.3z
			 M201.8,24.4h2.4l0.7-1.8h3.7l0.7,1.8h2.5l-4.4-10.6h-2.2l0.6,1.4L201.8,24.4z M206.8,18l1,2.5h-2L206.8,18z M212.9,24.4h2.1v-4.8
			h1.4v-2H215v-0.9c0-0.4,0.3-0.8,0.8-0.8c0.3,0,0.4,0,0.6,0.1l0.2,0.1l0.9-1.9l-0.2-0.1c-0.4-0.2-1-0.2-1.3-0.2
			c-1,0-1.8,0.3-2.3,0.9c-0.5,0.5-0.7,1.3-0.7,2.1v0.9h-1v2h1L212.9,24.4z"/>
		<path class="st5" d="M191,18.3v6.1h2.3V13.8l-4.6,3.5l-4.6-3.5v10.6h2.3v-6.1l2.3,1.7L191,18.3z"/>
		<path class="st5" d="M221.2,16.4c-2.7,0-4.2,2-4.2,4c0,1.9,1.5,4,4.1,4c1.2,0,2.4-0.6,3.3-1.6l-1.7-1c-0.4,0.5-1,0.7-1.6,0.7
			c-0.9,0-1.7-0.6-1.9-1.4h5.8v-0.5C225.1,17.7,222.8,16.4,221.2,16.4L221.2,16.4z M219.3,19.4c0.3-0.7,0.9-1.1,1.7-1.1
			s1.4,0.4,1.7,1.2L219.3,19.4z M230,16.4c-2.7,0-4.1,2-4.1,4s1.5,4,4.1,4c1.2,0,2.4-0.6,3.3-1.6l-1.7-1c-0.4,0.5-1,0.7-1.6,0.7
			c-0.9,0-1.7-0.6-1.9-1.4h5.8v-0.5C233.9,17.8,231.6,16.4,230,16.4L230,16.4z M228.1,19.4c0.3-0.7,0.9-1.2,1.7-1.1
			c0.8,0,1.4,0.4,1.7,1.2L228.1,19.4z M233.6,16.1h0.9v0.2h-0.4v1h-0.2v-1h-0.3V16.1z M234.7,16.1h0.3l0.3,0.9l0.3-0.9h0.3v1.1h-0.2
			v-0.9l-0.3,0.9h-0.2l-0.3-0.9v0.9h-0.2L234.7,16.1L234.7,16.1z"/>
		<path class="st5" d="M173.9,16.4l-5.7-2.7v10.6l5.7,2.7v-2.6l-3.4-1.6v-5.4l3.4,1.6V16.4z"/>
	</g>
	<path class="st6" d="M173.9,16.4l5.8-2.7v10.6l-5.8,2.7v-2.6l3.4-1.6v-5.4l-3.4,1.6V16.4z"/>
</g>
</svg>
